<?xml version="1.0" encoding="UTF-8" standalone="no"?>
<!-- Generator: Adobe Illustrator 19.0.0, SVG Export Plug-In . SVG Version: 6.00 Build 0)  -->

<svg
   version="1.1"
   id="Layer_1"
   x="0px"
   y="0px"
   viewBox="0 0 256 256"
   xml:space="preserve"
   sodipodi:docname="logo.svg"
   width="256"
   height="256"
   inkscape:version="1.4.2 (ebf0e940d0, 2025-05-08)"
   xmlns:inkscape="http://www.inkscape.org/namespaces/inkscape"
   xmlns:sodipodi="http://sodipodi.sourceforge.net/DTD/sodipodi-0.dtd"
   xmlns="http://www.w3.org/2000/svg"
   xmlns:svg="http://www.w3.org/2000/svg"><defs
   id="defs22" /><sodipodi:namedview
   id="namedview22"
   pagecolor="#ffffff"
   bordercolor="#000000"
   borderopacity="0.25"
   inkscape:showpageshadow="2"
   inkscape:pageopacity="0.0"
   inkscape:pagecheckerboard="0"
   inkscape:deskcolor="#d1d1d1"
   inkscape:zoom="2.2519531"
   inkscape:cx="255.77797"
   inkscape:cy="256"
   inkscape:window-width="3440"
   inkscape:window-height="1371"
   inkscape:window-x="0"
   inkscape:window-y="0"
   inkscape:window-maximized="1"
   inkscape:current-layer="Layer_1" />
<circle
   style="fill:#f2cf61;stroke-width:0.5"
   cx="128"
   cy="128"
   r="128"
   id="circle1" />
<path
   style="fill:#e6c45c;stroke-width:0.5"
   d="m 217.896,217.83 c -0.132,-0.342 -0.276,-0.678 -0.412,-1.018 -0.128,-0.334 -0.266,-0.664 -0.4,-0.996 -0.138,-0.36 -0.288,-0.708 -0.428,-1.062 -0.132,-0.344 -0.278,-0.682 -0.414,-1.024 -0.132,-0.344 -0.278,-0.684 -0.414,-1.024 -0.132,-0.344 -0.278,-0.684 -0.414,-1.026 -0.132,-0.344 -0.278,-0.682 -0.414,-1.024 -0.132,-0.344 -0.278,-0.682 -0.414,-1.026 -0.132,-0.344 -0.278,-0.68 -0.414,-1.024 -0.132,-0.344 -0.276,-0.682 -0.414,-1.024 -0.132,-0.342 -0.274,-0.678 -0.41,-1.018 -0.132,-0.35 -0.28,-0.69 -0.418,-1.034 -0.132,-0.344 -0.276,-0.682 -0.414,-1.024 -0.132,-0.344 -0.276,-0.682 -0.414,-1.024 -0.132,-0.344 -0.276,-0.684 -0.414,-1.024 -0.132,-0.344 -0.276,-0.684 -0.414,-1.026 -0.126,-0.33 -0.266,-0.658 -0.398,-0.986 -0.134,-0.36 -0.286,-0.708 -0.426,-1.062 -0.132,-0.344 -0.278,-0.684 -0.414,-1.024 -0.132,-0.344 -0.276,-0.68 -0.414,-1.02 -0.13,-0.348 -0.278,-0.688 -0.414,-1.032 -0.132,-0.344 -0.278,-0.684 -0.414,-1.024 -0.132,-0.344 -0.278,-0.684 -0.414,-1.026 -0.132,-0.344 -0.278,-0.682 -0.414,-1.024 -0.132,-0.344 -0.278,-0.682 -0.414,-1.026 -0.132,-0.344 -0.278,-0.68 -0.414,-1.024 -0.132,-0.344 -0.278,-0.682 -0.414,-1.024 -0.132,-0.344 -0.278,-0.682 -0.414,-1.024 -0.132,-0.344 -0.274,-0.68 -0.412,-1.02 -0.132,-0.348 -0.28,-0.688 -0.416,-1.032 -0.132,-0.344 -0.278,-0.682 -0.414,-1.024 -0.132,-0.344 -0.278,-0.684 -0.414,-1.024 -0.128,-0.332 -0.266,-0.66 -0.398,-0.988 -0.136,-0.36 -0.286,-0.708 -0.428,-1.062 -0.13,-0.344 -0.276,-0.682 -0.414,-1.024 -0.13,-0.344 -0.276,-0.684 -0.414,-1.024 -0.13,-0.344 -0.276,-0.684 -0.414,-1.026 -0.13,-0.344 -0.276,-0.682 -0.414,-1.024 -0.13,-0.342 -0.274,-0.678 -0.41,-1.018 -0.134,-0.348 -0.28,-0.688 -0.418,-1.034 -0.13,-0.344 -0.276,-0.682 -0.414,-1.024 -0.13,-0.344 -0.276,-0.682 -0.414,-1.026 -0.13,-0.344 -0.276,-0.68 -0.414,-1.024 -0.13,-0.344 -0.276,-0.682 -0.414,-1.024 -0.13,-0.344 -0.276,-0.682 -0.414,-1.024 -0.13,-0.344 -0.276,-0.684 -0.412,-1.024 -0.132,-0.344 -0.278,-0.684 -0.414,-1.026 -0.126,-0.33 -0.266,-0.654 -0.398,-0.978 -0.136,-0.362 -0.286,-0.712 -0.43,-1.07 -0.13,-0.344 -0.276,-0.684 -0.414,-1.024 -0.13,-0.346 -0.276,-0.684 -0.414,-1.026 -0.13,-0.344 -0.276,-0.682 -0.414,-1.024 -0.13,-0.346 -0.276,-0.682 -0.414,-1.026 -0.13,-0.344 -0.276,-0.68 -0.414,-1.024 -0.13,-0.344 -0.276,-0.682 -0.414,-1.024 -0.13,-0.344 -0.274,-0.682 -0.414,-1.024 -0.13,-0.344 -0.274,-0.684 -0.414,-1.024 -0.13,-0.344 -0.274,-0.68 -0.41,-1.02 -0.132,-0.348 -0.278,-0.688 -0.418,-1.032 -0.13,-0.344 -0.274,-0.684 -0.412,-1.024 -0.132,-0.344 -0.276,-0.684 -0.414,-1.026 -0.132,-0.344 -0.276,-0.682 -0.414,-1.024 -0.126,-0.332 -0.268,-0.658 -0.398,-0.988 -0.138,-0.356 -0.288,-0.708 -0.428,-1.062 -0.132,-0.344 -0.278,-0.682 -0.414,-1.024 -0.132,-0.344 -0.278,-0.682 -0.414,-1.026 -0.132,-0.34 -0.274,-0.676 -0.41,-1.016 -0.132,-0.348 -0.282,-0.69 -0.418,-1.034 -0.132,-0.344 -0.278,-0.682 -0.414,-1.024 -0.132,-0.346 -0.276,-0.682 -0.414,-1.026 -0.132,-0.344 -0.276,-0.68 -0.414,-1.024 -0.132,-0.344 -0.276,-0.682 -0.414,-1.024 -0.132,-0.344 -0.276,-0.682 -0.414,-1.024 -0.132,-0.344 -0.276,-0.684 -0.414,-1.024 -0.132,-0.346 -0.276,-0.684 -0.414,-1.026 -0.132,-0.344 -0.276,-0.682 -0.414,-1.024 -0.132,-0.342 -0.274,-0.678 -0.41,-1.018 -0.128,-0.336 -0.268,-0.664 -0.402,-0.996 -0.134,-0.36 -0.286,-0.708 -0.426,-1.062 -0.132,-0.344 -0.278,-0.684 -0.414,-1.024 -0.132,-0.344 -0.278,-0.684 -0.414,-1.024 -0.132,-0.346 -0.278,-0.684 -0.414,-1.026 -0.132,-0.344 -0.278,-0.682 -0.414,-1.024 -0.132,-0.346 -0.278,-0.682 -0.414,-1.026 -3.642,-9.436 -9.324,-17.77 -14.582,-24.274 -0.032,-0.074 -0.07,-0.144 -0.106,-0.216 -0.132,-0.342 -0.264,-0.688 -0.414,-1.024 -0.132,-0.342 -0.264,-0.69 -0.414,-1.024 -0.132,-0.342 -0.264,-0.688 -0.414,-1.024 -0.132,-0.342 -0.262,-0.69 -0.414,-1.024 -0.132,-0.342 -0.262,-0.686 -0.414,-1.02 -0.132,-0.346 -0.262,-0.692 -0.414,-1.03 -0.13,-0.338 -0.258,-0.678 -0.406,-1.008 -0.134,-0.35 -0.266,-0.7 -0.418,-1.042 -0.134,-0.342 -0.266,-0.69 -0.414,-1.024 -0.134,-0.342 -0.266,-0.688 -0.414,-1.024 -0.134,-0.342 -0.266,-0.69 -0.414,-1.024 -0.134,-0.342 -0.266,-0.688 -0.414,-1.024 -0.134,-0.342 -0.266,-0.69 -0.414,-1.024 -0.134,-0.342 -0.266,-0.688 -0.414,-1.024 -0.134,-0.342 -0.262,-0.686 -0.414,-1.02 -0.134,-0.344 -0.266,-0.692 -0.414,-1.03 -0.132,-0.342 -0.266,-0.688 -0.414,-1.024 -0.132,-0.342 -0.264,-0.69 -0.414,-1.024 -0.132,-0.342 -0.264,-0.688 -0.414,-1.024 -0.132,-0.342 -0.264,-0.69 -0.414,-1.024 -0.132,-0.342 -0.264,-0.688 -0.414,-1.024 -0.132,-0.338 -0.258,-0.678 -0.406,-1.008 -0.136,-0.35 -0.268,-0.7 -0.42,-1.042 -0.134,-0.342 -0.264,-0.69 -0.414,-1.024 -0.134,-0.342 -0.264,-0.688 -0.414,-1.024 -0.134,-0.342 -0.262,-0.686 -0.414,-1.02 -0.134,-0.344 -0.262,-0.692 -0.414,-1.03 -0.134,-0.342 -0.264,-0.688 -0.412,-1.024 -0.136,-0.342 -0.266,-0.69 -0.414,-1.024 -0.136,-0.342 -0.266,-0.688 -0.414,-1.024 -0.134,-0.342 -0.266,-0.69 -0.414,-1.024 -0.134,-0.342 -0.266,-0.688 -0.414,-1.024 -0.134,-0.342 -0.266,-0.69 -0.414,-1.024 -0.134,-0.342 -0.266,-0.688 -0.414,-1.024 -0.134,-0.342 -0.266,-0.69 -0.414,-1.024 -0.134,-0.342 -0.262,-0.686 -0.414,-1.02 -0.132,-0.34 -0.258,-0.682 -0.406,-1.012 -0.136,-0.348 -0.27,-0.7 -0.422,-1.042 -0.132,-0.342 -0.262,-0.688 -0.414,-1.024 -0.132,-0.342 -0.262,-0.69 -0.414,-1.024 -0.132,-0.342 -0.262,-0.688 -0.414,-1.024 -0.132,-0.342 -0.262,-0.69 -0.412,-1.024 -0.134,-0.342 -0.264,-0.688 -0.414,-1.024 -3.25,-8.302 -11.556,-14.224 -21.32,-14.224 -12.59,0 -21.814,9.876 -22.798,21.942 -0.254,3.104 2.114,23.1 2.716,32.626 -11.392,10.668 -30.88,37.208 -29.826,62.132 l 0.34,0.404 c -8.692,2.344 -21.106,14.542 -17.268,23.442 0.08,0.184 0.178,0.358 0.262,0.54 0.058,0.16 0.084,0.328 0.152,0.486 0.08,0.186 0.178,0.358 0.262,0.542 0.058,0.16 0.084,0.328 0.152,0.484 0.08,0.186 0.178,0.36 0.262,0.542 0.056,0.16 0.084,0.328 0.152,0.486 0.08,0.184 0.178,0.358 0.262,0.54 0.056,0.16 0.084,0.328 0.152,0.486 0.08,0.186 0.178,0.358 0.262,0.542 0.056,0.16 0.084,0.328 0.152,0.484 0.08,0.184 0.178,0.36 0.262,0.542 0.056,0.16 0.084,0.328 0.152,0.486 0.076,0.18 0.174,0.35 0.256,0.528 0.058,0.164 0.086,0.334 0.156,0.498 0.078,0.182 0.176,0.358 0.262,0.538 0.058,0.164 0.084,0.332 0.152,0.488 0.078,0.184 0.178,0.36 0.262,0.542 0.058,0.16 0.084,0.328 0.152,0.486 0.078,0.184 0.178,0.358 0.262,0.54 0.058,0.16 0.084,0.328 0.152,0.486 0.078,0.184 0.176,0.358 0.262,0.542 0.058,0.16 0.084,0.328 0.152,0.484 0.078,0.184 0.176,0.36 0.262,0.542 0.058,0.16 0.082,0.328 0.152,0.486 0.078,0.184 0.176,0.358 0.262,0.54 0.058,0.16 0.082,0.328 0.152,0.486 0.078,0.184 0.176,0.358 0.262,0.542 0.058,0.16 0.082,0.328 0.152,0.484 0.078,0.184 0.176,0.36 0.262,0.542 0.058,0.158 0.082,0.326 0.152,0.486 0.078,0.184 0.176,0.358 0.262,0.54 0.058,0.16 0.082,0.328 0.152,0.486 0.078,0.184 0.176,0.358 0.262,0.542 0.056,0.16 0.082,0.328 0.152,0.484 0.078,0.184 0.176,0.356 0.262,0.54 0.056,0.16 0.082,0.328 0.152,0.488 0.078,0.184 0.176,0.358 0.262,0.54 0.056,0.16 0.082,0.328 0.152,0.486 0.078,0.184 0.176,0.358 0.262,0.542 0.056,0.158 0.082,0.326 0.152,0.484 0.078,0.184 0.176,0.36 0.262,0.54 0.056,0.16 0.082,0.328 0.15,0.488 0.078,0.18 0.174,0.348 0.256,0.528 0.06,0.164 0.086,0.334 0.156,0.498 0.08,0.184 0.18,0.358 0.262,0.54 0.058,0.16 0.086,0.328 0.152,0.486 0.08,0.184 0.18,0.36 0.262,0.54 0.058,0.16 0.086,0.328 0.152,0.488 0.08,0.184 0.178,0.356 0.262,0.54 0.058,0.16 0.086,0.328 0.152,0.486 0.08,0.184 0.178,0.358 0.262,0.54 0.058,0.16 0.084,0.328 0.152,0.486 0.08,0.184 0.178,0.36 0.262,0.54 0.058,0.16 0.084,0.328 0.152,0.488 0.08,0.184 0.178,0.356 0.262,0.54 0.058,0.16 0.084,0.328 0.152,0.484 0.078,0.184 0.176,0.358 0.262,0.54 0.058,0.162 0.084,0.33 0.152,0.488 0.08,0.184 0.178,0.358 0.262,0.54 0.058,0.16 0.084,0.328 0.152,0.488 0.08,0.184 0.178,0.356 0.262,0.54 0.058,0.16 0.084,0.328 0.152,0.484 0.08,0.186 0.178,0.36 0.262,0.542 0.058,0.16 0.084,0.328 0.152,0.486 0.08,0.184 0.178,0.358 0.262,0.54 0.058,0.16 0.084,0.328 0.152,0.486 0.08,0.186 0.178,0.358 0.262,0.542 0.058,0.16 0.084,0.328 0.152,0.484 0.08,0.186 0.178,0.36 0.262,0.542 0.058,0.16 0.084,0.328 0.152,0.486 0.08,0.184 0.178,0.358 0.262,0.54 0.058,0.16 0.084,0.328 0.152,0.486 0.078,0.182 0.174,0.35 0.256,0.53 0.06,0.164 0.086,0.332 0.154,0.496 0.082,0.184 0.18,0.36 0.264,0.542 0.056,0.16 0.084,0.328 0.15,0.486 0.078,0.182 0.178,0.358 0.264,0.538 0.056,0.162 0.084,0.33 0.15,0.488 0.082,0.186 0.18,0.358 0.264,0.542 0.056,0.16 0.084,0.328 0.15,0.484 0.082,0.184 0.18,0.36 0.264,0.542 0.056,0.16 0.084,0.328 0.15,0.486 0.082,0.184 0.18,0.358 0.262,0.54 0.058,0.16 0.086,0.328 0.152,0.486 0.082,0.184 0.18,0.358 0.262,0.542 0.058,0.16 0.086,0.328 0.152,0.484 0.082,0.184 0.18,0.36 0.262,0.542 0.058,0.16 0.086,0.328 0.152,0.486 0.082,0.184 0.18,0.358 0.262,0.54 0.058,0.16 0.086,0.328 0.152,0.486 0.082,0.184 0.18,0.358 0.262,0.542 0.058,0.16 0.086,0.328 0.152,0.484 0.082,0.184 0.18,0.36 0.262,0.542 0.058,0.158 0.086,0.326 0.152,0.486 0.082,0.184 0.18,0.358 0.262,0.54 0.058,0.16 0.086,0.328 0.152,0.486 0.078,0.182 0.176,0.356 0.262,0.538 0.058,0.164 0.086,0.332 0.152,0.488 0.082,0.184 0.18,0.36 0.262,0.54 0.058,0.16 0.086,0.328 0.152,0.488 0.08,0.184 0.18,0.358 0.262,0.54 0.058,0.16 0.086,0.328 0.152,0.486 0.078,0.18 0.176,0.35 0.258,0.528 0.058,0.164 0.086,0.334 0.154,0.498 0.08,0.184 0.178,0.36 0.264,0.54 0.056,0.16 0.082,0.328 0.15,0.488 0.08,0.184 0.178,0.358 0.264,0.54 0.056,0.16 0.082,0.328 0.15,0.486 0.08,0.184 0.178,0.358 0.264,0.54 0.056,0.16 0.082,0.328 0.15,0.486 0.08,0.184 0.178,0.36 0.262,0.54 0.058,0.16 0.084,0.328 0.152,0.488 0.08,0.184 0.178,0.356 0.262,0.54 0.058,0.16 0.084,0.328 0.152,0.486 0.08,0.184 0.178,0.358 0.262,0.54 0.058,0.16 0.084,0.328 0.152,0.486 0.02,0.046 0.044,0.09 0.066,0.136 C 99.562,253.55 113.49,256 128,256 c 35.222,0 67.122,-14.234 90.266,-37.258 -0.122,-0.306 -0.246,-0.61 -0.37,-0.912 z"
   id="path1" />
<path
   style="fill:#263740;stroke-width:0.5"
   d="m 108.748,200.77 c 7.914,3.348 28.28,5.602 50.02,-2.464 l 26.63,-35.48 c 9.674,-35.346 -28.49,-67.052 -29.704,-69.656 -1.198,-2.596 -3.574,-22.226 -3.574,-22.226 0,-12.114 -10.208,-21.942 -22.798,-21.942 -12.59,0 -21.814,9.876 -22.798,21.942 -0.254,3.104 2.114,23.1 2.716,32.626 -11.392,10.668 -30.88,37.208 -29.826,62.13 z"
   id="path2" />
<path
   style="fill:#1e2c33;stroke-width:0.5"
   d="M 155.7,93.168 C 154.5,90.572 152.122,70.942 152.122,70.942 152.122,58.828 141.914,49 129.326,49 c -1.372,0 -2.696,0.138 -3.978,0.362 10.668,1.832 18.78,10.79 18.78,21.582 0,0 2.376,19.63 3.574,22.226 1.21,2.602 39.376,34.31 29.704,69.656 l -26.632,35.478 c -9.336,3.462 -18.406,5.018 -26.358,5.406 9.538,0.476 21.706,-0.708 34.358,-5.406 l 26.628,-35.478 C 195.072,127.478 156.908,95.772 155.7,93.168 Z"
   id="path3" />
<path
   style="fill:#f5f5f5;stroke-width:0.5"
   d="m 161.092,205.394 c -5.084,-8.73 -4.38,-36.808 1.576,-43.248 8.352,-2.522 29.558,-2.042 31.334,9.34 2.79,17.768 -20.588,38.348 -32.91,33.908 z"
   id="path4" />
<path
   style="fill:#e6e6e6;stroke-width:0.5"
   d="m 194.002,171.488 c -1.334,-8.55 -13.634,-10.95 -23.212,-10.542 8.706,0.36 18.058,3.148 19.212,10.542 2.394,15.25 -14.482,32.554 -27.108,34.35 12.652,2.06 33.766,-17.414 31.108,-34.35 z"
   id="path5" />
<path
   style="fill:#f5f5f5;stroke-width:0.5"
   d="M 108.876,202.174 C 108.54,192.17 95.162,169.044 84.29,165.958 c -7.734,-2.426 -26.39,12.948 -21.8,23.59 7.164,16.584 38.218,22.556 46.386,12.626 z"
   id="path6" />
<path
   style="fill:#e6e6e6;stroke-width:0.5"
   d="m 84.29,165.958 c -1.126,-0.354 -2.484,-0.32 -3.966,0.008 10.866,3.126 24.216,26.212 24.552,36.208 -2.402,2.922 -6.792,4.458 -11.964,4.76 6.868,0.386 12.96,-1.108 15.964,-4.76 C 108.54,192.168 95.158,169.042 84.29,165.958 Z"
   id="path7" />
<path
   style="fill:#ffd464;stroke-width:0.5"
   d="m 119.822,93.5 c 1.512,-2 6.102,-4.986 10.428,-6.714 4.75,-0.614 9.666,0.714 12.372,1.876 1.794,9.922 -4.288,7.588 -10.038,17.172 -9.096,-5.57 -11.5,-5.418 -12.762,-12.334 z"
   id="path8" />
<g
   id="g8"
   transform="scale(0.5)">
</g>
<g
   id="g9"
   transform="scale(0.5)">
</g>
<g
   id="g10"
   transform="scale(0.5)">
</g>
<g
   id="g11"
   transform="scale(0.5)">
</g>
<g
   id="g12"
   transform="scale(0.5)">
</g>
<g
   id="g13"
   transform="scale(0.5)">
</g>
<g
   id="g14"
   transform="scale(0.5)">
</g>
<g
   id="g15"
   transform="scale(0.5)">
</g>
<g
   id="g16"
   transform="scale(0.5)">
</g>
<g
   id="g17"
   transform="scale(0.5)">
</g>
<g
   id="g18"
   transform="scale(0.5)">
</g>
<g
   id="g19"
   transform="scale(0.5)">
</g>
<g
   id="g20"
   transform="scale(0.5)">
</g>
<g
   id="g21"
   transform="scale(0.5)">
</g>
<g
   id="g22"
   transform="scale(0.5)">
</g>
</svg>
